<svg xmlns="http://www.w3.org/2000/svg" width="284" height="267" viewBox="0 0 284 267" fill="none">
<path fill-rule="evenodd" clip-rule="evenodd" d="M141.009 0.217811C178.972 -1.84157 217.11 10.7167 244.239 37.2826C271.592 64.0682 284.092 102.01 284 140.242C283.907 178.377 272.396 217.457 243.742 242.706C216.368 266.825 177.46 268.57 141.009 266.234C107.385 264.08 75.778 252.758 50.682 230.333C23.9507 206.448 0.448168 176.035 0.00631562 140.242C-0.439407 104.135 22.7742 73.3825 48.43 47.9048C74.0166 22.4959 104.956 2.17361 141.009 0.217811Z" fill="#E19C75"/>
<path d="M92.0611 134.384C95.8371 134.384 98.3971 132.592 100.189 130.16L97.9171 128.912C96.7011 130.736 94.4931 132.016 92.0611 132.016C87.3891 132.016 83.8371 128.4 83.8371 123.344C83.8371 118.256 87.3891 114.672 92.0611 114.672C94.4931 114.672 96.7011 115.984 97.9171 117.776L100.157 116.528C98.4611 114.128 95.8371 112.304 92.0611 112.304C85.9171 112.304 81.0851 116.784 81.0851 123.344C81.0851 129.904 85.9171 134.384 92.0611 134.384ZM113.302 134.384C119.606 134.384 123.894 129.648 123.894 123.344C123.894 117.04 119.606 112.304 113.302 112.304C106.966 112.304 102.71 117.04 102.71 123.344C102.71 129.648 106.966 134.384 113.302 134.384ZM113.302 132.016C108.502 132.016 105.462 128.304 105.462 123.344C105.462 118.352 108.502 114.672 113.302 114.672C118.07 114.672 121.142 118.352 121.142 123.344C121.142 128.304 118.07 132.016 113.302 132.016ZM148.939 134V112.656H145.131L138.475 128.72L131.851 112.656H128.043V134H130.699V116.432L137.931 134H139.019L146.283 116.432V134H148.939ZM156.574 134V112.656H153.918V134H156.574ZM179.238 134V112.656H176.582V129.328L164.294 112.656H161.574V134H164.23V116.976L176.678 134H179.238ZM194.342 134.416C197.83 134.416 200.742 132.944 202.726 130.736V123.024H192.742V125.392H200.07V129.744C199.014 130.8 196.902 132.048 194.342 132.048C189.67 132.048 186.118 128.4 186.118 123.344C186.118 118.256 189.67 114.672 194.342 114.672C196.902 114.672 199.174 115.888 200.518 117.616L202.63 116.304C200.742 113.968 198.118 112.304 194.342 112.304C188.262 112.304 183.366 116.72 183.366 123.344C183.366 129.968 188.262 134.416 194.342 134.416ZM106.236 173.384C111.996 173.384 114.108 170.216 114.108 167.112C114.108 159.144 101.468 161.896 101.468 157.096C101.468 155.08 103.292 153.704 105.852 153.704C108.188 153.704 110.428 154.504 112.028 156.264L113.628 154.312C111.836 152.424 109.308 151.336 106.044 151.336C101.852 151.336 98.7161 153.736 98.7161 157.256C98.7161 164.872 111.356 161.832 111.356 167.336C111.356 168.968 110.14 171.016 106.332 171.016C103.324 171.016 101.02 169.544 99.6121 167.976L98.0441 169.992C99.8041 171.976 102.524 173.384 106.236 173.384ZM127.802 173.384C134.106 173.384 138.394 168.648 138.394 162.344C138.394 156.04 134.106 151.304 127.802 151.304C121.466 151.304 117.21 156.04 117.21 162.344C117.21 168.648 121.466 173.384 127.802 173.384ZM127.802 171.016C123.002 171.016 119.962 167.304 119.962 162.344C119.962 157.352 123.002 153.672 127.802 153.672C132.57 153.672 135.642 157.352 135.642 162.344C135.642 167.304 132.57 171.016 127.802 171.016ZM152.271 173.384C158.575 173.384 162.863 168.648 162.863 162.344C162.863 156.04 158.575 151.304 152.271 151.304C145.935 151.304 141.679 156.04 141.679 162.344C141.679 168.648 145.935 173.384 152.271 173.384ZM152.271 171.016C147.471 171.016 144.431 167.304 144.431 162.344C144.431 157.352 147.471 153.672 152.271 153.672C157.039 153.672 160.111 157.352 160.111 162.344C160.111 167.304 157.039 171.016 152.271 171.016ZM184.676 173V151.656H182.02V168.328L169.732 151.656H167.012V173H169.668V155.976L182.116 173H184.676Z" fill="#F1EEE7"/>
</svg>