<svg xmlns="http://www.w3.org/2000/svg" width="300" height="330" viewBox="0 0 300 330" fill="none">
<path d="M124.17 7.30649L123.89 15.0994L200.653 72.8623L215.823 133.079C215.823 133.079 192.808 219.158 200.653 248.886C208.497 278.615 263.2 315.483 246.964 294.88C230.729 274.276 238.389 253.946 242.677 245.134C246.964 236.323 257.525 223.487 258.926 207.036C260.327 190.584 243.797 177.596 240.715 155.372C237.634 133.147 246.879 122.757 242.677 99.0895C238.474 75.4222 228.669 45.6937 198.692 17.4083C168.715 -10.877 124.17 7.30649 124.17 7.30649Z" fill="#F1EEE7" stroke="#302E2E" stroke-width="2" stroke-linejoin="round"/>
<path d="M190.823 183.788C197.966 175.336 207.054 159.835 208.17 146.284C209.286 132.733 205.626 113.781 202.558 104.555C199.49 95.3291 195.194 87.3475 192.684 82.7344C190.174 78.1213 187.385 62.8406 185.153 58.8041C182.922 54.7676 150.848 28.2425 124.91 36.892C98.9721 45.5415 96.4619 63.4172 94.7885 76.1031C93.1151 88.789 101.207 107.24 102.044 113.007C102.881 118.773 101.296 128.367 104.085 137.305C106.874 146.242 115.712 162.126 122.963 168.469C130.215 174.812 138.12 183.257 142.862 186.429C147.603 189.6 157.312 199.154 167.352 198.578C177.393 198.001 183.679 192.239 190.823 183.788Z" fill="#F1EEE7" stroke="#302E2E" stroke-width="2" stroke-linejoin="round"/>
<path d="M96.9419 116.176L98.4726 101.386C98.4726 101.386 100.513 108.253 101.024 114.063C101.534 119.873 102.044 133.607 102.044 133.607L96.9419 116.176Z" fill="#F1EEE7" stroke="#302E2E" stroke-width="0.5" stroke-linecap="round" stroke-linejoin="round"/>
<path d="M144.838 130.595C147.457 127.884 146.933 119.209 145.886 115.414C144.838 111.618 141.696 99.1479 141.696 99.1479" stroke="#302E2E" stroke-linecap="round"/>
<path d="M130.174 104.686L130.274 105.175C130.489 105.132 130.65 104.953 130.672 104.735C130.694 104.517 130.571 104.31 130.369 104.225L130.174 104.686ZM109.225 110.954L108.737 110.848C108.69 111.064 108.791 111.286 108.985 111.392L109.225 110.954ZM130.174 104.686C130.369 104.225 130.369 104.225 130.369 104.225C130.369 104.225 130.369 104.225 130.368 104.225C130.368 104.225 130.367 104.224 130.367 104.224C130.365 104.224 130.364 104.223 130.361 104.222C130.356 104.22 130.349 104.217 130.34 104.213C130.322 104.206 130.296 104.195 130.262 104.181C130.194 104.153 130.094 104.113 129.966 104.063C129.709 103.964 129.34 103.825 128.883 103.667C127.97 103.351 126.703 102.956 125.292 102.642C123.883 102.329 122.316 102.093 120.806 102.102C119.301 102.112 117.812 102.365 116.592 103.065L117.089 103.933C118.103 103.351 119.398 103.111 120.812 103.102C122.221 103.094 123.709 103.315 125.075 103.619C126.439 103.922 127.667 104.305 128.556 104.612C129 104.766 129.358 104.9 129.604 104.995C129.727 105.043 129.822 105.081 129.885 105.107C129.917 105.12 129.941 105.13 129.957 105.137C129.965 105.14 129.971 105.142 129.975 105.144C129.976 105.145 129.978 105.145 129.979 105.146C129.979 105.146 129.979 105.146 129.979 105.146C129.979 105.146 129.979 105.146 129.98 105.146C129.979 105.146 129.979 105.146 130.174 104.686ZM116.592 103.065C114.341 104.356 112.538 105.603 111.22 106.866C109.902 108.129 109.045 109.435 108.737 110.848L109.714 111.06C109.965 109.908 110.68 108.769 111.913 107.587C113.146 106.405 114.871 105.206 117.089 103.933L116.592 103.065ZM109.225 110.954C108.985 111.392 108.985 111.392 108.985 111.393C108.985 111.393 108.985 111.393 108.986 111.393C108.986 111.393 108.986 111.393 108.987 111.393C108.988 111.394 108.989 111.395 108.99 111.395C108.993 111.397 108.997 111.399 109.001 111.401C109.01 111.406 109.023 111.412 109.038 111.421C109.07 111.437 109.116 111.46 109.175 111.488C109.293 111.545 109.464 111.623 109.684 111.712C110.124 111.889 110.76 112.111 111.557 112.296C113.15 112.665 115.393 112.886 117.995 112.296L117.774 111.321C115.348 111.871 113.261 111.665 111.782 111.322C111.043 111.15 110.457 110.945 110.059 110.784C109.859 110.704 109.708 110.635 109.607 110.587C109.557 110.563 109.52 110.544 109.496 110.532C109.484 110.526 109.476 110.521 109.471 110.518C109.468 110.517 109.467 110.516 109.466 110.516C109.466 110.515 109.465 110.515 109.465 110.515C109.465 110.515 109.465 110.515 109.466 110.516C109.466 110.516 109.466 110.516 109.466 110.516C109.466 110.516 109.466 110.516 109.225 110.954ZM117.995 112.296C123.174 111.123 125.062 107.794 126.301 106.783L125.668 106.008C124.114 107.276 122.65 110.216 117.774 111.321L117.995 112.296ZM126.301 106.783C126.923 106.274 127.896 105.87 128.758 105.588C129.181 105.45 129.562 105.347 129.838 105.277C129.975 105.243 130.086 105.217 130.161 105.2C130.199 105.192 130.228 105.185 130.247 105.181C130.257 105.179 130.264 105.178 130.268 105.177C130.271 105.176 130.272 105.176 130.273 105.176C130.274 105.176 130.274 105.176 130.274 105.175C130.274 105.175 130.274 105.175 130.274 105.175C130.274 105.175 130.274 105.175 130.274 105.175C130.274 105.175 130.274 105.175 130.174 104.686C130.074 104.196 130.074 104.196 130.074 104.196C130.074 104.196 130.074 104.196 130.074 104.196C130.074 104.196 130.074 104.196 130.073 104.196C130.073 104.196 130.072 104.196 130.071 104.196C130.069 104.197 130.067 104.197 130.064 104.198C130.058 104.199 130.049 104.201 130.038 104.203C130.015 104.208 129.983 104.215 129.942 104.225C129.859 104.243 129.74 104.271 129.594 104.307C129.302 104.381 128.898 104.491 128.448 104.638C127.564 104.926 126.442 105.376 125.668 106.008L126.301 106.783Z" fill="#302E2E"/>
<path d="M114.519 107.67C114.244 105.574 115.067 104.077 115.067 104.077C115.067 104.077 116.986 102.88 118.357 102.58C119.728 102.281 121.373 102.281 123.018 103.179C124.663 104.077 124.937 107.071 124.937 107.071C124.937 107.071 122.47 110.065 121.099 110.664C119.728 111.262 118.357 112.161 117.26 112.161C116.164 112.161 114.793 109.765 114.519 107.67Z" stroke="#302E2E"/>
<path d="M122.342 107.281C122.342 108.518 121.377 109.492 120.224 109.492C119.07 109.492 118.105 108.518 118.105 107.281C118.105 106.043 119.07 105.07 120.224 105.07C121.377 105.07 122.342 106.043 122.342 107.281Z" fill="#302E2E" stroke="#302E2E"/>
<path d="M171.572 89.9306C171.572 91.1682 170.607 92.1416 169.453 92.1416C168.3 92.1416 167.335 91.1682 167.335 89.9306C167.335 88.6931 168.3 87.7197 169.453 87.7197C170.607 87.7197 171.572 88.6931 171.572 89.9306Z" fill="#302E2E" stroke="#302E2E"/>
<path d="M116.713 101.317L118.342 102.16C118.342 102.16 114.154 104.234 111.581 106.658C110.306 107.86 109.427 109.148 109.652 110.313C109.946 111.834 111.868 112.197 113.954 112.118L113.997 112L114.01 112.116C114.455 112.098 114.907 112.06 115.351 112.009L115.355 112L115.358 112.008C116.732 111.85 118.036 111.571 118.85 111.375L118.885 111.157L118.948 111.351C119.418 111.237 119.7 111.157 119.7 111.157V113.687L118.948 111.351C118.916 111.359 118.883 111.367 118.85 111.375L118.342 114.53V111.719H117.256L117.527 114.811L116.441 112V115.092L115.358 112.008C115.357 112.008 115.355 112.008 115.354 112.008C115.353 112.008 115.352 112.009 115.351 112.009L114.269 114.53L114.01 112.116C113.991 112.117 113.973 112.118 113.954 112.118L112.368 116.498L112.911 112.562L111.01 115.655L111.553 112.562L109.109 115.092L110.195 112.562L107.48 114.811L108.566 112L105.85 112.562L107.48 111.157H105.036L108.566 110.313L105.85 109.189H108.566V108.345L106.665 107.783H109.652L110.195 107.196L107.48 105.253L111.581 106.658L110.195 104.409L112.911 105.253V104.753L111.553 102.722L113.997 104.409L114.289 104.027L113.997 102.16L114.8 103.499L115.82 102.971V101.914L116.426 102.722L117.351 102.442L116.713 101.317Z" fill="#302E2E"/>
<path d="M115.355 112L114.269 114.53L113.997 112L112.368 116.498L112.911 112.562L111.01 115.655L111.553 112.562L109.109 115.092L110.195 112.562L107.48 114.811L108.566 112L105.85 112.562L107.48 111.157H105.036L108.566 110.313L105.85 109.189H108.566V108.345L106.665 107.783H109.652L110.195 107.196L107.48 105.253L111.581 106.658L110.195 104.409L112.911 105.253V104.753L111.553 102.722L113.997 104.409L114.289 104.027L113.997 102.16L114.8 103.499L115.82 102.971V101.914L116.426 102.722L117.351 102.442L116.713 101.317L118.342 102.16C118.342 102.16 108.973 106.799 109.652 110.313C110.331 113.827 119.7 111.157 119.7 111.157V113.687L118.885 111.157L118.342 114.53V111.719H117.256L117.527 114.811L116.441 112V115.092L115.355 112ZM115.355 112L115.083 115.374" stroke="#302E2E" stroke-width="0.25" stroke-linejoin="round"/>
<path d="M162.255 88.9889L161.598 87.1246L162.641 88.5013C162.665 88.4739 162.69 88.4456 162.717 88.4164V86.5919L163.325 87.8037C163.348 87.7832 163.37 87.7626 163.393 87.7418V85.2602L164.216 87.0705L165.154 84.7275L165.417 86.295L166.998 83.3958L166.267 85.8593C166.301 85.8433 166.336 85.8274 166.371 85.8115L168.316 82.8631L167.789 85.2602L169.37 81.7977L169.106 84.7275L170.501 82.3304L170.161 84.7275L171.478 82.3304L170.973 84.6286C170.991 84.6268 171.008 84.6251 171.026 84.6233L173.059 81.7977L172.269 84.4612H173.059L174.904 81.7977L174.377 84.1948L176.485 81.2556L175.168 84.4612L176.749 82.8631L176.485 84.7275L178.594 82.3304L177.803 84.4612L180.175 82.8631L178.594 84.7275L182.023 82.3399L180.702 84.7275L182.546 85.7929H180.175L182.283 87.3909L180.175 86.5919L180.975 87.7619L179.911 87.1246L180.702 88.9889L179.384 87.6572L179.911 90.0543L178.857 88.4563V90.3206L178.066 88.9889L177.276 89.5216L178.066 91.6524L176.749 90.3206L176.222 90.8533L176.749 93.2504L175.431 91.1197L174.904 91.6524V94.0494L173.85 92.185L173.059 92.7177V95.3811L172.269 93.2504H171.478L170.951 94.8484L170.161 94.0494L169.634 95.3811L169.37 94.3158L167.789 96.9792L168.052 94.5821L166.998 94.8484L165.417 96.9792L166.208 94.8484H165.154L163.836 96.1801L165.417 94.3158C165.417 94.3158 169.502 94.0494 173.586 91.6524C177.671 89.2553 179.384 85.7929 179.384 85.7929C179.384 85.7929 176.15 84.1184 171.026 84.6233L170.951 84.7275L170.973 84.6286C170.707 84.6555 170.436 84.6883 170.161 84.7275C168.669 84.9395 167.412 85.339 166.371 85.8115L166.208 86.0592L166.267 85.8593C165.965 85.9995 165.682 86.1457 165.417 86.295C164.56 86.7778 163.891 87.2928 163.393 87.7418V87.9388L163.325 87.8037C163.078 88.0309 162.876 88.2396 162.717 88.4164V88.6009L162.641 88.5013C162.379 88.8005 162.255 88.9889 162.255 88.9889Z" fill="#302E2E"/>
<path d="M170.161 84.7275L170.501 82.3304L169.106 84.7275L169.37 81.7977L167.789 85.2602L168.316 82.8631L166.208 86.0592L166.998 83.3958L165.417 86.295L165.154 84.7275L164.216 87.0705L163.393 85.2602V87.9388L162.717 86.5919V88.6009L161.598 87.1246L162.255 88.9889C162.255 88.9889 164.539 85.5265 170.161 84.7275ZM170.161 84.7275L171.478 82.3304L170.951 84.7275L173.059 81.7977L172.269 84.4612H173.059L174.904 81.7977L174.377 84.1948L176.485 81.2556L175.168 84.4612L176.749 82.8631L176.485 84.7275L178.594 82.3304L177.803 84.4612L180.175 82.8631L178.594 84.7275L182.023 82.3399L180.702 84.7275L182.546 85.7929H180.175L182.283 87.3909L180.175 86.5919L180.975 87.7619L179.911 87.1246L180.702 88.9889L179.384 87.6572L179.911 90.0543L178.857 88.4563V90.3206L178.066 88.9889L177.276 89.5216L178.066 91.6524L176.749 90.3206L176.222 90.8533L176.749 93.2504L175.431 91.1197L174.904 91.6524V94.0494L173.85 92.185L173.059 92.7177V95.3811L172.269 93.2504H171.478L170.951 94.8484L170.161 94.0494L169.634 95.3811L169.37 94.3158L167.789 96.9792L168.052 94.5821L166.998 94.8484L165.417 96.9792L166.208 94.8484H165.154L163.836 96.1801L165.417 94.3158C165.417 94.3158 169.502 94.0494 173.586 91.6524C177.671 89.2553 179.384 85.7929 179.384 85.7929C179.384 85.7929 175.783 83.9285 170.161 84.7275Z" stroke="#302E2E" stroke-width="0.25" stroke-linejoin="round"/>
<path d="M156.36 91.5572C156.36 91.5572 159.774 82.5225 166.033 79.2097C172.292 75.897 179.404 78.3063 179.404 78.3063" stroke="#302E2E" stroke-width="0.75" stroke-linejoin="round"/>
<path d="M157.408 98.3244C157.408 98.3244 166.386 101.015 171.011 100.006C175.636 98.997 178.357 96.9791 178.357 96.9791" stroke="#302E2E" stroke-width="0.5" stroke-linejoin="round"/>
<path d="M157.408 100.232L161.598 104.57" stroke="#302E2E" stroke-width="0.5" stroke-linejoin="round"/>
<path d="M147.981 81.7977L149.469 73.7687V80.9671L150.958 72.6612V79.0291L153.19 71.2769V77.6448L155.423 68.7851V75.7067L157.408 68.7851L157.16 74.3224" stroke="#302E2E" stroke-width="0.5" stroke-linejoin="round"/>
<path d="M157.148 95.5756L156.726 95.308C156.61 95.4897 156.624 95.7245 156.76 95.8913C156.896 96.058 157.123 96.1193 157.324 96.0434L157.148 95.5756ZM180.452 85.3178L180.92 85.4933C180.975 85.3451 180.957 85.1793 180.871 85.0463C180.785 84.9134 180.642 84.829 180.484 84.8188L180.452 85.3178ZM170.386 93.1694L170.205 92.7035L170.386 93.1694ZM157.148 95.5756C157.57 95.8432 157.57 95.8432 157.57 95.8432C157.57 95.8431 157.57 95.8431 157.57 95.843C157.571 95.8428 157.571 95.8426 157.571 95.8423C157.571 95.8416 157.572 95.8406 157.573 95.8393C157.574 95.8366 157.577 95.8326 157.58 95.8272C157.587 95.8164 157.598 95.8003 157.611 95.7793C157.638 95.7371 157.678 95.6749 157.729 95.5953C157.831 95.436 157.979 95.207 158.161 94.9288C158.526 94.372 159.026 93.619 159.571 92.8331C160.116 92.0462 160.703 91.2309 161.239 90.5475C161.788 89.8494 162.25 89.3346 162.551 89.1082L161.949 88.3094C161.531 88.6244 160.996 89.2387 160.453 89.9297C159.899 90.6354 159.299 91.4691 158.749 92.2635C158.198 93.0589 157.692 93.8196 157.325 94.3811C157.141 94.662 156.991 94.8933 156.888 95.0546C156.836 95.1353 156.795 95.1984 156.768 95.2415C156.754 95.263 156.744 95.2796 156.737 95.2907C156.733 95.2963 156.73 95.3006 156.728 95.3035C156.728 95.3049 156.727 95.306 156.726 95.3068C156.726 95.3072 156.726 95.3075 156.726 95.3077C156.726 95.3078 156.726 95.3078 156.726 95.3079C156.726 95.308 156.726 95.308 157.148 95.5756ZM162.551 89.1082C164.014 88.0066 165.967 86.3282 168.968 85.8105L168.798 84.825C165.514 85.3917 163.363 87.245 161.949 88.3094L162.551 89.1082ZM168.968 85.8105C170.482 85.5493 173.323 85.5462 175.832 85.6143C177.077 85.648 178.224 85.6987 179.061 85.7409C179.479 85.762 179.819 85.781 180.054 85.7947C180.172 85.8015 180.264 85.8071 180.326 85.8109C180.356 85.8128 180.38 85.8143 180.396 85.8153C180.404 85.8157 180.41 85.8161 180.414 85.8164C180.416 85.8165 180.417 85.8166 180.418 85.8167C180.419 85.8167 180.419 85.8167 180.419 85.8167C180.419 85.8167 180.419 85.8167 180.419 85.8167C180.419 85.8167 180.419 85.8167 180.452 85.3178C180.484 84.8188 180.484 84.8188 180.484 84.8188C180.483 84.8188 180.483 84.8188 180.483 84.8188C180.483 84.8188 180.483 84.8187 180.482 84.8187C180.481 84.8186 180.479 84.8185 180.477 84.8184C180.473 84.8181 180.467 84.8177 180.459 84.8172C180.442 84.8162 180.418 84.8147 180.387 84.8128C180.324 84.8089 180.231 84.8033 180.112 84.7964C179.875 84.7825 179.532 84.7634 179.111 84.7422C178.269 84.6997 177.114 84.6486 175.859 84.6146C173.37 84.5471 170.427 84.544 168.798 84.825L168.968 85.8105ZM180.452 85.3178C179.983 85.1423 179.983 85.142 179.984 85.1417C179.984 85.1416 179.984 85.1414 179.984 85.1412C179.984 85.141 179.984 85.1407 179.984 85.1406C179.984 85.1403 179.984 85.1403 179.984 85.1406C179.984 85.1412 179.983 85.1428 179.982 85.1456C179.98 85.151 179.976 85.1607 179.97 85.1746C179.958 85.2023 179.939 85.2464 179.91 85.3055C179.854 85.4237 179.761 85.6019 179.624 85.8287C179.349 86.2821 178.894 86.9303 178.183 87.6815C176.762 89.1823 174.309 91.1046 170.205 92.7035L170.568 93.6353C174.803 91.9852 177.383 89.9818 178.909 88.369C179.672 87.5634 180.17 86.8579 180.479 86.3467C180.634 86.0912 180.742 85.8845 180.812 85.7383C180.847 85.6652 180.873 85.6073 180.89 85.5659C180.899 85.5453 180.906 85.5288 180.911 85.5166C180.913 85.5105 180.915 85.5055 180.917 85.5016C180.917 85.4997 180.918 85.498 180.918 85.4966C180.919 85.4959 180.919 85.4953 180.919 85.4947C180.919 85.4945 180.919 85.4941 180.919 85.494C180.92 85.4936 180.92 85.4933 180.452 85.3178ZM170.205 92.7035C167.696 93.6808 164.517 94.0192 162.25 94.0192L162.25 95.0192C164.584 95.0192 167.9 94.6746 170.568 93.6353L170.205 92.7035ZM162.25 94.0192C161.035 94.0191 159.71 94.2962 158.707 94.5643C158.202 94.6994 157.77 94.8345 157.464 94.9359C157.311 94.9867 157.189 95.0292 157.105 95.0592C157.063 95.0742 157.03 95.0861 157.008 95.0943C156.996 95.0985 156.988 95.1017 156.982 95.104C156.979 95.1051 156.976 95.106 156.975 95.1066C156.974 95.1069 156.973 95.1072 156.973 95.1074C156.972 95.1075 156.972 95.1075 156.972 95.1076C156.972 95.1076 156.972 95.1077 156.972 95.1077C156.972 95.1077 156.972 95.1078 157.148 95.5756C157.324 96.0434 157.324 96.0435 157.324 96.0435C157.324 96.0435 157.324 96.0435 157.324 96.0435C157.324 96.0435 157.324 96.0435 157.324 96.0434C157.325 96.0434 157.325 96.0432 157.325 96.043C157.326 96.0427 157.328 96.042 157.33 96.0412C157.335 96.0394 157.342 96.0367 157.352 96.0331C157.372 96.0259 157.402 96.0151 157.441 96.0012C157.519 95.9734 157.634 95.9334 157.779 95.8851C158.07 95.7885 158.483 95.6594 158.965 95.5304C159.938 95.2703 161.165 95.0192 162.25 95.0192L162.25 94.0192Z" fill="#302E2E"/>
<path d="M164.291 90.8216C163.767 89.1951 164.74 86.6775 164.74 86.6775C164.74 86.6775 166.032 85.4452 167.842 84.8537C169.652 84.2622 171.548 84.5087 171.548 84.5087C171.548 84.5087 173.714 85.6917 174.167 87.7619C174.619 89.8321 173.643 91.5572 173.643 91.5572C173.643 91.5572 173.643 92.0994 170.501 93.1838C167.358 94.2682 166.835 94.2682 166.835 94.2682C166.835 94.2682 164.815 92.4482 164.291 90.8216Z" stroke="#302E2E"/>
<path d="M125.984 90.4029C125.009 89.1436 122.325 86.3102 121.105 85.0509L124.46 90.4029L118.361 85.0509L122.325 90.4029L115.311 85.0509L119.58 90.4029L112.567 85.0509L117.141 90.4029L111.042 86.3102L115.921 90.7177L108.602 87.5695L112.567 90.7177L107.382 88.8288L111.042 91.6622L104.638 90.4029L107.992 92.2918L104.638 91.6622L106.468 93.2363H103.113L105.553 94.8104H101.893" stroke="#302E2E" stroke-width="0.5" stroke-linecap="round" stroke-linejoin="round"/>
<path d="M131.222 107.823L130.174 115.414" stroke="#302E2E" stroke-width="0.5" stroke-linecap="round"/>
<path d="M130.174 106.739C130.174 106.739 126.32 112.703 123.237 115.259C120.154 117.815 116.557 118.667 116.557 118.667" stroke="#302E2E" stroke-width="0.5" stroke-linecap="round"/>
<path d="M128.079 101.344C128.079 101.344 119.829 96.3381 113.286 98.694C106.743 101.05 105.036 107.823 105.036 107.823" stroke="#302E2E" stroke-width="0.75"/>
<path d="M237.681 66.6866C226.196 43.5527 182.497 0.75492 127.032 10.5869C206.114 32.4582 207.148 63.7948 215.551 82.8803C223.955 101.966 222.274 119.895 227.317 130.883C232.359 141.872 241.323 145.342 257.01 162.114C272.697 178.886 267.913 211.382 267.913 211.382C267.913 211.382 282.221 192.188 274.378 165.584C266.534 138.98 257.57 135.221 244.685 119.605C231.799 103.99 249.167 89.8206 237.681 66.6866Z" fill="#F1EEE7" stroke="#302E2E" stroke-width="2" stroke-linejoin="round"/>
<path d="M236.49 125.715C235.221 83.7347 186.623 27.5328 128.603 17.8189C185.811 76.7025 210.858 110.227 210.613 136.055C210.369 161.882 200.868 182.458 200.925 197.407C200.981 212.355 208.137 219.914 215.96 245.807C223.783 271.7 214.235 302.47 214.235 302.47C214.235 302.47 227.163 291.112 231.252 256.601C235.34 222.089 228.312 214.188 222.693 190.743C217.074 167.298 237.759 167.696 236.49 125.715Z" fill="#F1EEE7" stroke="#302E2E" stroke-width="2" stroke-linejoin="round"/>
<path d="M134.826 56.774C124.731 46.7087 123.89 15.6501 123.89 15.6501C123.89 15.6501 150.442 16.2856 172.123 28.1206C193.805 39.9556 201.4 79.0868 212.922 89.3885C224.444 99.6901 165.113 63.6759 165.113 63.6759L172.123 73.1661C172.123 73.1661 165.674 70.2903 163.15 67.4145C160.626 64.5387 154.737 55.3361 154.737 55.3361L163.991 74.8915C163.991 74.8915 144.922 66.8393 134.826 56.774Z" fill="#F1EEE7" stroke="#302E2E" stroke-width="2" stroke-linejoin="round"/>
<path d="M184.7 137.833C184.7 137.833 188.782 141.002 189.292 142.059C189.802 143.115 188.271 148.925 188.271 148.925" stroke="black" stroke-width="0.5" stroke-linecap="round" stroke-linejoin="round"/>
<path d="M133.678 154.736C133.678 154.736 130.616 157.377 130.106 158.962C129.596 160.546 133.678 164.772 133.678 164.772" stroke="black" stroke-width="0.5" stroke-linecap="round" stroke-linejoin="round"/>
<path d="M120.922 7.89172L120.922 15.2867C120.922 15.2867 86.2272 96.632 101.024 130.966C115.82 165.3 121.482 154.994 133.678 177.977C145.874 200.961 158.979 232.915 159.536 269.92C160.092 306.925 139.305 339.2 140.381 324.561C141.457 309.921 130.551 300.12 123.101 296.909C115.652 293.698 99.2417 290.514 87.8012 266.004C76.3607 241.494 94.824 234.758 94.1767 220.483C93.5294 206.208 78.0334 201.69 76.8886 188.103C75.7437 174.517 78.0456 161.506 76.8886 148.29C75.7316 135.074 71.5689 129.444 69.9002 82.8984C68.2315 36.3526 120.922 7.89172 120.922 7.89172Z" fill="#F1EEE7" stroke="#302E2E" stroke-width="2" stroke-linejoin="round"/>
<path d="M81.7882 151.844C70.9873 114.783 69.2474 33.2921 122.869 14.2962C88.2106 90.2806 94.7304 121.886 104.512 151.844C114.293 181.803 134.659 194.016 140.125 211.382C145.591 228.748 139.846 236.663 141.696 267.77C143.547 298.877 165.264 313.314 165.264 313.314C165.264 313.314 128.624 304.591 111.844 265.059C95.0642 225.528 102.918 231.221 99.7983 203.249C96.6784 175.277 92.5892 188.906 81.7882 151.844Z" fill="#F1EEE7" stroke="#302E2E" stroke-width="2" stroke-linejoin="round"/>
<path d="M121.795 80.1712C123.386 72.0383 127.033 52.1551 127.032 42.3641C127.031 32.573 123.386 16.7346 123.386 16.7346C123.386 16.7346 89.4142 36.3455 84.0868 67.1585C78.7594 97.9715 88.8003 101.317 85.1343 117.04C81.4682 132.764 104.512 99.6901 111.049 55.3228V85.5931L117.779 38.9645C117.779 38.9645 120.203 88.3041 121.795 80.1712Z" fill="#F1EEE7" stroke="#302E2E" stroke-width="2" stroke-linejoin="round"/>
<path d="M147.43 138.728C144.811 132.764 151.096 132.764 151.096 132.764" stroke="black" stroke-width="0.5" stroke-linecap="round" stroke-linejoin="round"/>
<path d="M119.548 106.196C119.548 107.03 118.896 107.698 118.102 107.698C117.307 107.698 116.655 107.03 116.655 106.196C116.655 105.363 117.307 104.695 118.102 104.695C118.896 104.695 119.548 105.363 119.548 106.196Z" fill="#F1EEE7" stroke="black" stroke-width="0.25"/>
<path d="M168.778 88.8462C168.778 89.6797 168.126 90.3478 167.332 90.3478C166.537 90.3478 165.885 89.6797 165.885 88.8462C165.885 88.0128 166.537 87.3447 167.332 87.3447C168.126 87.3447 168.778 88.0128 168.778 88.8462Z" fill="#F1EEE7" stroke="black" stroke-width="0.25"/>
<path d="M164.835 130.966C164.835 130.966 167.132 132.262 167.132 135.235C167.132 138.207 166.558 140.287 164.835 140.287C163.113 140.287 162.539 138.207 160.242 139.098C157.945 139.99 156.797 144.746 153.639 145.34C150.48 145.935 146.748 143.26 145.313 143.26C143.877 143.26 147.035 146.826 145.313 146.529C143.59 146.232 142.155 145.637 140.719 143.26C139.284 140.882 140.719 137.305 140.719 137.305" stroke="#302E2E" stroke-linecap="round"/>
<path d="M133.168 160.018C133.168 160.018 140.821 165.828 158.679 162.131C176.536 158.433 186.23 145.756 186.23 145.756" stroke="#302E2E" stroke-linecap="round" stroke-linejoin="round"/>
<path d="M161.74 170.582C148.984 173.223 140.821 162.659 140.821 162.659C140.821 162.659 145.923 164.772 158.679 162.131C171.434 159.49 179.598 152.623 179.598 152.623C179.598 152.623 175.516 167.73 161.74 170.582Z" stroke="#302E2E" stroke-linecap="round" stroke-linejoin="round"/>
<path d="M148.984 157.905C147.964 158.433 140.311 162.659 140.311 162.659C140.311 162.659 146.433 164.244 159.189 161.603C171.944 158.962 181.638 151.566 179.598 152.095C173.475 155.264 164.801 153.679 163.271 154.208C161.74 154.736 158.168 157.377 157.148 157.905C156.127 158.433 150.005 157.377 148.984 157.905Z" stroke="#302E2E" stroke-linecap="round" stroke-linejoin="round"/>
<path d="M157.658 161.074L153.576 162.659L162.25 160.546L157.658 161.074Z" fill="#302E2E" stroke="#302E2E" stroke-width="0.5" stroke-linecap="round" stroke-linejoin="round"/>
</svg>